<?xml version="1.0" encoding="utf-8"?>
<!-- Generator: Adobe Illustrator 26.0.1, SVG Export Plug-In . SVG Version: 6.00 Build 0)  -->
<svg version="1.1" id="Layer_1" xmlns="http://www.w3.org/2000/svg" xmlns:xlink="http://www.w3.org/1999/xlink" x="0px" y="0px"
	 viewBox="0 0 196.6 196.6" style="enable-background:new 0 0 196.6 196.6;" xml:space="preserve">
<style type="text/css">
	.st0{fill:url(#SVGID_1_);}
</style>
<linearGradient id="SVGID_1_" gradientUnits="userSpaceOnUse" x1="5.7872" y1="110.7515" x2="190.7872" y2="110.7515" gradientTransform="matrix(1 0 0 -1 0 209.0388)">
	<stop  offset="0" style="stop-color:#FFDB6E"/>
	<stop  offset="1" style="stop-color:#FFBC5E"/>
</linearGradient>
<path class="st0" d="M5.8,98.3c0-51.1,41.4-92.5,92.5-92.5h42.5c27.6,0,50,22.4,50,50v42.5c0,51.1-41.4,92.5-92.5,92.5l0,0
	C47.2,190.8,5.8,149.4,5.8,98.3L5.8,98.3z"/>
<path d="M81.1,117.4c-6.8,16-15.9,29.6-20.9,33.9c-3.3,2-3.3-7.6-2.7-9.1c1.6-5.3,8-19.5,15.2-33.3l-2.7-2.4
	c-3.8-2-0.8-10.3,2.3-7.3l3.6,3.9l9-16.8c0-4.2-0.6-8-2.1-11c-2.4-3.2-6.6-3.1-6.7-3.6c-1.7-2.1-1.7-3.9-0.1-4.1
	c2.1-0.1,6.6,2.4,9.3,6.6c1.7,2.9,2.4,4.4,2.9,6.1l8.1-15c0.2-0.6,1-0.6,1.8-0.1c0.8,0.7,2.4,3.8,2,4.7c-3.6,6.2-7.3,13.1-11.2,20.7
	c-0.5,5.7-2,11.9-4.2,18.3c27.7,2.6,67.4-16,60-43.6c-6.2-18.6-35.6-20.7-49.1-19.8C67.3,47.1,44,58.4,33,72c-6.9,8.7-9,18-4.5,26.6
	c0.8,1.1,1.8,2.3,2.7,3.5c2.5,2.4,5.7,4.7,9.7,6.7c0.8,0.8,3.5,3.3,3.1,4.5c-0.2,0.7-1.1,0.7-1.6,0.5c-7.2-3.8-13.6-9.5-17.2-15.8
	c-6.2-9.8-4.3-20.8,3.3-30.4c11.3-14.2,35.3-25.8,64-27.5c19.3-1.2,50.4,4.2,56.6,27.9c7.3,30.7-34.1,49.2-63.5,46.1
	c15.9,15.2,42.7,38.6,59,38.6c5.1,0,8.5-2.7,8.8-7.9c0.1-2.5,4.7,0.1,4.7,2.4c0,5.7-6.4,9.3-14.4,9.3
	C124.6,156.6,96.3,131.5,81.1,117.4z M76.3,113.7c-3.9,7.8-8.4,16.6-11.9,24c4.8-6,9-15,12.7-23.6L76.3,113.7z"/>
<path d="M151.1,103c0.2-0.6,1.1-0.7,1.6-0.4c0.8,0.6,3.1,2.9,2.6,3.8L155,107l1.1-0.8c1.2-0.2,2.9,2.3,3,3.2
	c0.5,2.3,1.8,3.3,3.7,3.3c3.5,0,7.2-1.6,9.9-2.9c1.2-0.5,3.5,3.6,1.7,4.4c-2.1,1.2-6.2,3.2-9.8,3.2c-2.7,0-5.3-2.3-7.6-6
	c-2.6,2.6-9.2,12.8-11.7,19.1c-0.7,1.9-4.5-2-4.2-3.2C143.3,120,148.1,109.5,151.1,103z"/>
</svg>
